<svg id="Layer_1" data-name="Layer 1" xmlns="http://www.w3.org/2000/svg" viewBox="0 0 384 384"><path d="M348,528c1.25-4.93,2.09-10,3.81-14.75,7.92-21.94,23.17-36.34,45.56-42.91,3.21-.94,4.29-2.28,4.5-5.49a121.4,121.4,0,0,1,13.85-48.22c2.13-4.12,5.19-5.56,8.34-3.94s3.83,4.92,1.65,9.1A116.78,116.78,0,0,0,412.58,471c-.28,5.81-2.12,7.9-7.93,9.07-22.83,4.59-41,23.16-44.57,45.65-3.84,23.93,6.83,46.86,27.29,58.72,8.78,5.09,18.34,7.13,28.36,7.14q117.72.13,235.45.12c9.62,0,18.65-3.11,27.29-7.26a13.54,13.54,0,0,1,4.18-1.53,5.05,5.05,0,0,1,5.7,3.85c.89,3-.3,5.38-3.11,6.85a77.15,77.15,0,0,1-26.57,8.63c-6.3.76-12.69.77-19.67,1.15v4.8c0,7.5,0,15,0,22.5,0,4.38,1.74,6,6.17,6.09,2.86,0,5.72,0,8.47,0,6.51-12.33,14.58-16.91,25-14.37a20.55,20.55,0,0,1,.3,39.92c-10.58,2.69-18.54-1.76-25.35-14.3-3,0-6.15,0-9.27,0-9.68-.13-16.51-6.9-16.59-16.55-.08-9.35,0-18.69,0-28.24H592.5v68.36c0,5.81,1.41,7.18,7.34,7.19a15.34,15.34,0,0,1,2.25,0c3.57.52,5.61-.55,7.35-4.19,4.08-8.55,13.91-12.49,23.14-10.12a20.58,20.58,0,1,1-23.53,29.32c-.57-1.11-1-2.26-1.72-3.78-3.09,0-6.3,0-9.51,0-9.66-.13-16.52-6.92-16.55-16.59-.06-22,0-44,0-66v-4.23h-36v3.87q0,22.5,0,45c0,3.2-1,5.71-4.33,6.55-4,1-6.9-1.75-6.92-6.51q0-22.3,0-44.62v-4.3H498c0,4.34,0,8.56,0,12.78s-2.15,6.87-5.68,6.84-5.52-2.54-5.55-7c0-4.11,0-8.22,0-12.64H451.5c0,7.69.06,15.4,0,23.11a45.64,45.64,0,0,1-.65,9.66,15.6,15.6,0,0,1-14.9,12,10.74,10.74,0,0,1-1.88,0c-5.39-.74-9,.35-12,6-4.28,8.09-14.61,10.85-23.28,7.87A20.59,20.59,0,1,1,423.69,633c.62,1.21,1.15,2.46,1.77,3.79,3.21,0,6.33,0,9.45,0s5.2-1.6,5.25-4.68c.17-9.59.06-19.19.06-29.24-7.87,0-15.49.45-23-.12-7.91-.6-16.15-1-23.55-3.53-25.39-8.68-39.95-27.08-44.87-53.3-.22-1.21-.52-2.41-.78-3.61Zm66.73,114.35a9.36,9.36,0,1,0-9.24,9.38A9.45,9.45,0,0,0,414.73,642.35Zm268.49-.15a9.35,9.35,0,1,0-9.08,9.52A9.44,9.44,0,0,0,683.22,642.2Zm-46.49,42.23a9.35,9.35,0,1,0-9.32,9.3A9.46,9.46,0,0,0,636.73,684.43Z" transform="translate(-348 -348)"/><path d="M538.5,348c6.61,1.16,13.34,1.88,19.82,3.54,41.52,10.65,70.86,35.77,88.06,75,1.06,2.4,2.23,3.25,4.84,3.46,42.27,3.4,74.7,34.39,80.13,76.39a12.51,12.51,0,0,0,.65,2.11V525c-1,4.73-1.81,9.5-3,14.17a84.43,84.43,0,0,1-19.31,35.51c-3.38,3.76-6.6,4.3-9.32,1.7s-2.27-5.51,1-9.18c37.41-42.64,18.23-108.37-36.14-123.39-5.83-1.61-12-2.16-18.08-2.7-5.63-.5-7.48-1.51-9.58-6.65-16.32-39.89-45.41-65.1-87.78-73-41.21-7.7-76.65,4.9-105.93,34.85-1,1.08-2,2.26-3,3.3-2.54,2.47-5.73,2.67-8.05.58s-2.5-5.44,0-8.33a123.15,123.15,0,0,1,26.46-23.07,125.45,125.45,0,0,1,58.11-20.17,16.17,16.17,0,0,0,2.52-.6Z" transform="translate(-348 -348)"/><path d="M535.5,732c-1-.44-2-.91-3-1.32-8.17-3.33-12.78-9.4-13.43-18.18a19.77,19.77,0,0,1,11.72-19.61c2.64-1.18,3.5-2.56,3.25-5.29a55.14,55.14,0,0,1,0-8.23,5.43,5.43,0,0,1,5.56-5.4c3,0,5.28,2.14,5.6,5.39a10.62,10.62,0,0,1,0,1.87c-.5,5.93-.21,10.58,6.6,14s9.24,11,8.2,18.76-5.53,13.47-12.95,16.57c-1.12.46-2.23,1-3.34,1.44Zm4.08-30a9.36,9.36,0,1,0,9.39,9.21A9.45,9.45,0,0,0,539.58,702Z" transform="translate(-348 -348)"/><path d="M498,659.55c0,4.74.07,9.49,0,14.23A16.11,16.11,0,0,1,481.82,690a15.36,15.36,0,0,1-2.25,0c-4.88-.64-8.08.42-10.73,5.57-4.24,8.25-14.61,11.31-23.42,8.39A20.6,20.6,0,0,1,448,664.14a20.07,20.07,0,0,1,22.12,11c1.39,3,3,3.81,6.12,3.74,10.36-.21,10.51-.22,10.51-10.46,0-7.74,0-15.48,0-23.22,0-4.68,2.06-7.23,5.69-7.18s5.53,2.59,5.55,7.34S498,654.8,498,659.55Zm-46.12,34.18a9.36,9.36,0,1,0-9.36-9.26A9.47,9.47,0,0,0,451.88,693.73Z" transform="translate(-348 -348)"/></svg>