<svg id="Layer_1" data-name="Layer 1" xmlns="http://www.w3.org/2000/svg" viewBox="0 0 360.29 360.33"><path d="M707.73,586.85v-171c0-7.39-1.54-8.88-9.08-8.89-3,0-6,.08-9,0-3.72-.15-5.92-2.38-6-5.84-.07-3.64,2.17-6,6.08-6.1,4.37-.11,8.76-.19,13.13,0a18,18,0,0,1,16.81,16.72c.08,1.24,0,2.5,0,3.75V626.43c0,13.74-7,20.75-20.81,20.75H380.32c-13.79,0-20.86-7-20.86-20.71V415.54C359.46,402,366.53,395,380,395c3,0,6-.05,9,0,4.23.1,6.54,2.33,6.48,6.1-.06,3.59-2.34,5.76-6.34,5.87-3.37.08-6.75,0-10.13,0-5.62,0-7.57,2-7.58,7.75q0,37.9,0,75.81v96.32ZM371.47,599.27v26.55c0,7.93,1.4,9.32,9.4,9.32H698.26c.87,0,1.75,0,2.62,0,4.69-.12,6.8-2.21,6.83-7,0-9,0-18,0-27a15.18,15.18,0,0,0-.23-1.86Z" transform="translate(-359.46 -358.92)"/><path d="M659.68,419.15H419.51V565.94a36.05,36.05,0,0,1-.06,3.75,5.68,5.68,0,0,1-6.08,5.37c-3.3-.17-5.33-1.94-5.8-5.27a25.25,25.25,0,0,1-.07-3.37q0-93.63,0-187.25c0-13,7.19-20.25,20.14-20.25h224c12.73,0,20,7.28,20.05,20q0,94.19,0,188.37c0,5.21-1.68,7.58-5.49,7.87a5.71,5.71,0,0,1-6.46-5.31,36.05,36.05,0,0,1-.06-3.75V419.15Zm0-12.33V380.2c0-7.81-1.43-9.27-9.07-9.27H428.52c-.75,0-1.5,0-2.25,0-4.54.14-6.66,2.18-6.74,6.69s0,8.75,0,13.13v16.07Z" transform="translate(-359.46 -358.92)"/><path d="M501.28,683.1h77c-.73-1.05-1.27-1.8-1.78-2.58-2.67-4.06-5.52-8-7.94-12.24-2.12-3.71-1-7.4,2.25-8.94s6.08,0,8.41,3.4c3.79,5.54,7.94,10.84,12,16.19,2.61,3.43,6,4.8,10.43,4.38a26.67,26.67,0,0,1,8.9.7,17.69,17.69,0,0,1,13,16.47c.15,4.13.12,8.26,0,12.39-.1,4-2.36,6.14-6.36,6.36-.87,0-1.75,0-2.62,0H464.56c-7.38,0-9-1.63-9-9,0-3.13-.07-6.26,0-9.38.31-9.8,8.15-18.31,17.83-17.38,9,.85,14.42-3.16,19.15-9.5,2.67-3.59,5.1-7.39,7.43-11.22,2.16-3.55,5.21-4.93,8.38-3.42s4.38,5.25,2.25,9C507.78,673.24,504.54,678,501.28,683.1Zm110.17,24c.77-10.53-.44-11.87-10.36-11.87H476.57c-1.12,0-2.26-.06-3.37,0-3.15.29-5.12,2.07-5.52,5.16a52.84,52.84,0,0,0-.05,6.67Z" transform="translate(-359.46 -358.92)"/><path d="M556.92,443c5-.05,7.66,3.8,6.17,8.4-3.57,11-7.26,22-10.93,33q-11.94,35.86-23.91,71.71c-2,5.89-4.55,7.94-8.44,6.69-4.13-1.33-5-4.41-2.92-10.58q17.28-51.84,34.55-103.69C552.47,445.42,554,443.13,556.92,443Z" transform="translate(-359.46 -358.92)"/><path d="M464.93,503.05c9.94,8.28,19.53,16.24,29.09,24.25a12.46,12.46,0,0,1,3.09,3.19c1.5,2.77.83,5.39-1.56,7.39-2.59,2.17-5.29,1.87-7.82-.22q-11.82-9.81-23.61-19.66c-3.84-3.2-7.7-6.37-11.51-9.6-4.13-3.52-4.16-7.19,0-10.66q17.09-14.33,34.23-28.57c3.43-2.86,6.94-2.87,9.28-.15,2.47,2.87,1.89,6.42-1.66,9.4C484.76,486.53,475.07,494.59,464.93,503.05Z" transform="translate(-359.46 -358.92)"/><path d="M614.16,503,589.3,482.18c-1.82-1.52-3.71-3-5.46-4.57-2.66-2.43-3-5.79-.9-8.36a5.76,5.76,0,0,1,8.37-.93q18.23,15,36.23,30.29c3.36,2.87,2.78,6.67-1.08,9.9q-15.8,13.25-31.67,26.42c-1,.88-2.08,1.79-3.17,2.62-3.15,2.38-6.37,2.18-8.66-.49s-2-6.23,1.16-8.85c9.08-7.64,18.23-15.22,27.34-22.82C612.3,504.69,613.09,503.94,614.16,503Z" transform="translate(-359.46 -358.92)"/><path d="M539.92,623.13c-3.88,0-7.75.06-11.63,0s-6.42-2.33-6.52-5.78,2.53-6.11,6.57-6.16c7.75-.08,15.51-.09,23.27,0,4.06.05,6.61,2.65,6.48,6.23s-2.52,5.65-6.53,5.71S543.8,623.13,539.92,623.13Z" transform="translate(-359.46 -358.92)"/><path d="M605.27,395c-11.5,0-23,0-34.5,0-4.87,0-7.3-2.11-7.21-6.11.08-3.76,2.56-5.87,7.15-5.88q34.88,0,69.76,0c4.5,0,7.07,2.25,7.09,6s-2.57,6-7,6C628.78,395,617,395,605.27,395Z" transform="translate(-359.46 -358.92)"/><path d="M443.49,389a6,6,0,1,1-5.93-6A6,6,0,0,1,443.49,389Z" transform="translate(-359.46 -358.92)"/><path d="M461.51,394.91a6,6,0,1,1,6-6A6,6,0,0,1,461.51,394.91Z" transform="translate(-359.46 -358.92)"/><path d="M485.7,383a6,6,0,1,1-6.12,5.82A6,6,0,0,1,485.7,383Z" transform="translate(-359.46 -358.92)"/></svg>