<svg id="Layer_1" data-name="Layer 1" xmlns="http://www.w3.org/2000/svg" viewBox="0 0 360.11 366.01"><path d="M390.17,552V671.8H546V668q0-26.61,0-53.23c0-4.37,1.64-6.76,4.87-7.31,4.19-.71,7.1,2.06,7.11,6.94q0,26.63,0,53.23V672c3.92,0,7.5,0,11.09,0,4.65.08,6.89,2.27,6.88,7,0,5.24.32,10.56-.5,15.69-2.41,15.1-14.51,25.27-29.79,25.31-28.36.09-56.73,0-85.09,0H392c-19.3,0-32-12.63-32-31.86,0-3.25-.08-6.5,0-9.75.13-4,2.34-6.24,6.32-6.36,3.73-.11,7.46,0,11.65,0V548.56c0-6.85,1.74-8.56,8.68-8.56q26.06,0,52.11,0c4.7,0,7.49,2.79,7,6.75-.43,3.31-2.91,5.22-7,5.23q-22.11,0-44.23,0Zm144,155.66c25.52,3.55,31.66-10,29.41-23.43H372c0,2.09,0,3.94,0,5.79.19,8.91,6.14,16.35,14.9,17.59,4.85.69,9.88.12,15,.12.41-4.71-1.43-11.22,5.7-11.5,8-.3,5.93,6.87,6.51,11.47H521.86c.46-9.07,1.77-11.55,6-11.67S533.6,698.52,534.16,707.66Z" transform="translate(-359.97 -354.01)"/><path d="M469.2,630.52c-11.78,8-23.05,9-34.05-.63-2.26,1.24-4.39,2.52-6.62,3.62a18,18,0,0,1-24-7.18,17.45,17.45,0,0,1,6.59-24.05c4.31-2.42,6-4.65,5.47-9.94-.74-8.05,3.17-14.7,9.7-19.62a5.85,5.85,0,0,1,.93-.63c28.05-13.79,50.33-35.42,74.28-54.76,11.76-9.5,23.33-19.23,35-28.84,4.73-3.89,8.14-3.28,11.26,2,1.65,2.8,3.34,5.58,4.87,8.44,1.83,3.42,1,6.8-1.84,8.54-3,1.85-6.35.86-8.59-2.6-.68-1-1.3-2.11-2.26-3.68l-75.18,62c1.93,3.38,3.81,6.71,5.72,10,3.06,5.3,6.18,10.57,9.18,15.9,2.08,3.69,1.44,7-1.53,8.89s-6.62.86-8.81-2.85c-4.25-7.2-8.39-14.47-12.58-21.71-.61-1.05-1.29-2.07-2.13-3.41-7.36,4.32-14.72,8.29-21.7,12.85-4.94,3.22-6.18,9.76-3.28,15.05q5.76,10.5,12,20.75c3.53,5.8,10.34,8,15.92,4.33,25.12-16.59,53.92-24.55,81.5-35.34,13.7-5.37,27.53-10.39,41.66-15.69-1.65-2.89-3.16-5.58-4.7-8.24q-10.57-18.33-21.19-36.64c-1.44-2.48-2.17-5.18-.07-7.25a8.82,8.82,0,0,1,5.82-2.28c1.47,0,3.44,1.62,4.28,3q14.88,25.35,29.42,50.91c2.55,4.46,1,7.66-4.49,9.72q-37,13.89-73.93,27.75c-4.65,1.75-9.31,3.52-14.29,5.41,3.76,6.6,7.54,12.88,11,19.34,6.26,11.77-1.25,25.58-14.41,26.5-7.57.54-13.28-2.81-17.11-9.3C477.08,644.3,473.27,637.58,469.2,630.52Zm10.4-5.79c4.17,7.24,7.95,14,11.91,20.6a5.85,5.85,0,0,0,8.07,2.4c2.92-1.67,4.09-4.54,2.63-7.35-3.79-7.23-8.06-14.22-12.29-21.57Zm-57.31-15.21c-7.88,4-9.84,7.08-7.44,11.06s6.41,3.69,13.24-1.05Z" transform="translate(-359.97 -354.01)"/><path d="M720,414c0,11.49,0,23,0,34.49,0,12-7.41,19.5-19.32,19.51q-34.67,0-69.35,0C619.57,468,612,460.5,612,448.85q-.06-16.68,0-33.37c0-4.72,2.26-7.46,6-7.45s6,2.75,6,7.48c0,11,0,22,0,33,0,5.38,2.11,7.49,7.5,7.49q34.49,0,69,0c5.38,0,7.5-2.12,7.5-7.49q0-34.49,0-69c0-5.39-2.1-7.51-7.47-7.51q-34.49,0-69,0c-5.42,0-7.49,2.08-7.53,7.44,0,3.38.06,6.75,0,10.13-.12,3.83-2.54,6.36-5.93,6.39s-5.91-2.49-6-6.31c-.11-4.25-.17-8.5,0-12.74.42-9.06,7.9-16.76,17-16.83q36.93-.29,73.85,0c9.55.08,17,8.12,17.07,17.91C720.08,390,720,402,720,414Z" transform="translate(-359.97 -354.01)"/><path d="M666,654c-11.62,0-23.24,0-34.86,0S612,646.41,612,635q0-35.06,0-70.11c0-11.22,7.63-18.86,18.81-18.88q35.23-.06,70.48,0c11,0,18.62,7.66,18.68,18.63.07,11.25,0,22.5,0,33.74,0,4.77-2.17,7.52-5.88,7.59s-6.1-2.75-6.1-7.74c0-10.75,0-21.49,0-32.24,0-6-2-8-7.76-8q-34.31,0-68.61,0c-5.59,0-7.62,2.06-7.62,7.73q0,34.31,0,68.6c0,5.62,2.06,7.65,7.71,7.65q34.31,0,68.61,0c5.61,0,7.63-2.06,7.67-7.7,0-3.37-.09-6.75,0-10.12.13-3.61,2.53-6,5.79-6.14s6,2.4,6.13,6.17c.12,4.37.21,8.76-.05,13.12A17.85,17.85,0,0,1,702,654C690,654.08,678,654,666,654Z" transform="translate(-359.97 -354.01)"/><path d="M444,468q0,23.06,0,46.12c0,5.88-2,7.87-7.87,7.87q-34.12,0-68.25,0c-5.87,0-7.86-2-7.86-7.87q0-46.12,0-92.25c0-5.89,2-7.86,7.87-7.86q34.11,0,68.24,0c5.88,0,7.87,2,7.87,7.87Q444,444.94,444,468Zm-71.74-42v83.7H431.8V426.14c-.77-.05-1.37-.13-2-.13Z" transform="translate(-359.97 -354.01)"/><path d="M510.1,354A54,54,0,0,1,564,408.29c-.07,29.75-24.49,53.82-54.47,53.7C480,461.88,455.8,437.36,456,407.71A54.06,54.06,0,0,1,510.1,354ZM552,408a42,42,0,1,0-42.24,42A42,42,0,0,0,552,408Z" transform="translate(-359.97 -354.01)"/><path d="M666,624a24,24,0,1,1,24-24.1A24,24,0,0,1,666,624Zm.1-12A12,12,0,1,0,654,600.2,12,12,0,0,0,666.11,612Z" transform="translate(-359.97 -354.01)"/><path d="M666,420.11c0,5.58,0,10.92,0,16.26,0,4.78-2.16,7.52-5.87,7.6s-6.1-2.74-6.12-7.73c0-5.23,0-10.47,0-16.07-4.9-.62-12.07,1.45-11.77-6.55.28-7.16,6.83-5.23,11.78-5.79,0-2.05,0-4,0-6A18,18,0,0,1,672,384c3.87-.08,7.75-.09,11.62,0s6.35,2.55,6.37,6-2.51,5.86-6.33,6c-3.12.11-6.25,0-9.38,0-6.39,0-8.26,1.89-8.26,8.23v3.5c4.84.79,11.87-1.37,11.77,6.38C677.68,421.51,671,419.67,666,420.11Z" transform="translate(-359.97 -354.01)"/><path d="M606.44,534c-4,0-6.61-2.11-7-5.33s1.76-5.91,5.27-6.63q14.49-3,29-5.85c4.33-.85,7.46.86,8.26,4.38.85,3.75-1.27,6.63-5.77,7.58-9.29,1.94-18.59,3.8-27.89,5.67A13.52,13.52,0,0,1,606.44,534Z" transform="translate(-359.97 -354.01)"/><path d="M594.78,455.26a40.33,40.33,0,0,1-2.59,5.1q-8.33,11.26-16.81,22.41c-2.66,3.51-6.12,4.18-9,1.94s-3.16-5.56-.67-8.92q8.55-11.57,17.23-23c1.73-2.29,4.19-3.68,6.82-2.32C591.71,451.45,593.09,453.58,594.78,455.26Z" transform="translate(-359.97 -354.01)"/><path d="M618.86,485.88c-1.45,2.08-2.24,4-3.68,5.14-7.66,6-15.45,11.76-23.28,17.51-3.14,2.3-6.51,1.81-8.62-.92s-1.62-6.29,1.66-8.78c7.63-5.81,15.33-11.52,23-17.27,2.17-1.63,4.64-2.36,6.9-.67C616.38,482.05,617.36,484,618.86,485.88Z" transform="translate(-359.97 -354.01)"/><path d="M401.65,474c-3.75,0-7.5.08-11.24,0s-6.36-2.54-6.38-5.94,2.49-5.94,6.31-6q11.63-.15,23.25,0c3.83.05,6.36,2.54,6.38,5.94s-2.5,5.89-6.32,6C409.65,474.08,405.65,474,401.65,474Z" transform="translate(-359.97 -354.01)"/><path d="M401.82,498c-3.75,0-7.5.06-11.24,0-4-.1-6.66-2.63-6.55-6.16.1-3.38,2.63-5.75,6.52-5.79q11.43-.12,22.87,0c4,0,6.65,2.62,6.55,6.14-.11,3.37-2.65,5.72-6.53,5.81S405.7,498,401.82,498Z" transform="translate(-359.97 -354.01)"/><path d="M408,438c2.12,0,4.25-.14,6.36,0A5.9,5.9,0,0,1,420,444a5.81,5.81,0,0,1-5.56,6c-4.24.21-8.5.2-12.74,0A5.82,5.82,0,0,1,396,444a5.89,5.89,0,0,1,5.56-6C403.69,437.89,405.83,438,408,438Z" transform="translate(-359.97 -354.01)"/><path d="M498.85,384.07c.67.27,2,.69,3.18,1.29,11.06,5.5,22.08,11.05,33.15,16.52,2.64,1.3,4.74,2.95,4.74,6.11s-2.09,4.82-4.73,6.12c-11.06,5.47-22.08,11.05-33.14,16.52-6.08,3-10,.5-10-6.31q0-16.67,0-33.34C492,386.67,494.55,383.94,498.85,384.07ZM520.54,408l-16.31-8.13v16.31Z" transform="translate(-359.97 -354.01)"/></svg>