<svg id="Layer_3" data-name="Layer 3" xmlns="http://www.w3.org/2000/svg" viewBox="0 0 107.21 107.21"><defs><style>.cls-1{fill:#fff;}</style></defs><path d="M482.55,562.38V511.26a28.13,28.13,0,0,1,28.05-28h51.12a28.13,28.13,0,0,1,28,28v51.12a28.13,28.13,0,0,1-28,28H544.53l-9-2.19-7.75,2.19H510.6A28.13,28.13,0,0,1,482.55,562.38Z" transform="translate(-482.55 -483.22)"/><path class="cls-1" d="M557,554.08l2.38-15.5H544.53V528.53c0-4.24,2.08-8.38,8.74-8.38H560V507a83.07,83.07,0,0,0-12-1c-12.25,0-20.25,7.42-20.25,20.85v11.81H514.17v15.5h13.61v36.34h16.75V554.08Z" transform="translate(-482.55 -483.22)"/></svg>