<svg id="Layer_4" data-name="Layer 4" xmlns="http://www.w3.org/2000/svg" viewBox="0 0 107.21 107.21"><defs><style>.cls-1{fill:#fff;}</style></defs><rect x="638.36" y="483.22" width="107.21" height="107.21" rx="30" transform="translate(590.42 -638.36) rotate(90)"/><path class="cls-1" d="M708.6,516.62a3.69,3.69,0,1,0,3.68,3.68A3.69,3.69,0,0,0,708.6,516.62Z" transform="translate(-638.36 -483.22)"/><path class="cls-1" d="M692.22,521.34a15.48,15.48,0,1,0,15.48,15.48A15.5,15.5,0,0,0,692.22,521.34Zm0,25.4a9.92,9.92,0,1,1,9.91-9.92A9.93,9.93,0,0,1,692.22,546.74Z" transform="translate(-638.36 -483.22)"/><path class="cls-1" d="M704.51,568.25h-25.1a18.9,18.9,0,0,1-18.88-18.88v-25.1a18.89,18.89,0,0,1,18.88-18.87h25.1a18.89,18.89,0,0,1,18.87,18.87v25.1A18.9,18.9,0,0,1,704.51,568.25Zm-25.1-56.94a13,13,0,0,0-13,13v25.1a13,13,0,0,0,13,13h25.1a13,13,0,0,0,13-13v-25.1a13,13,0,0,0-13-13Z" transform="translate(-638.36 -483.22)"/></svg>