<svg id="Layer_2" data-name="Layer 2" xmlns="http://www.w3.org/2000/svg" viewBox="0 0 107.21 107.21"><defs><style>.cls-1{fill:#fff;}</style></defs><rect x="482.66" y="794.79" width="107.21" height="107.21" rx="30" transform="translate(902 -482.66) rotate(90)"/><path class="cls-1" d="M513.78,838.41h10.39v33.35H513.78Zm5.2-16.57a6,6,0,1,1-6,6,6,6,0,0,1,6-6" transform="translate(-482.66 -794.79)"/><path class="cls-1" d="M530.67,838.41h9.94V843h.14a10.9,10.9,0,0,1,9.82-5.39c10.49,0,12.43,6.9,12.43,15.88v18.29H552.64V855.55c0-3.87-.08-8.84-5.39-8.84s-6.22,4.21-6.22,8.56v16.49H530.67Z" transform="translate(-482.66 -794.79)"/></svg>