<svg id="Layer_1" data-name="Layer 1" xmlns="http://www.w3.org/2000/svg" viewBox="0 0 280.58 361.45"><path d="M607.75,642.78v4.32q0,24.55,0,49.12c0,15.29-9.26,24.5-24.51,24.5h-159c-15.21,0-24.49-9.29-24.5-24.52q0-16.5,0-33c0-6.32,1.59-7.89,8-7.89H596.17V643.24c-.32-.17-.52-.36-.74-.37-8.49-.42-8.79-.68-10.24-9.06a10.56,10.56,0,0,1-.31-2.6c.7-7.19-4.73-8.66-9.76-10.37-.78-.27-2.09.32-2.87.9-2.92,2.15-5.68,4.5-8.57,6.69-3.25,2.47-5.79,2.38-8.67-.44-5.09-5-10.09-10.06-15.12-15.11-2.6-2.6-2.84-5.41-.65-8.4,1-1.41,2-2.85,3-4.28,4.86-6.85,4.93-6.88,1.11-14.41a4.76,4.76,0,0,0-3.11-2c-3.31-.56-6.7-.73-10-1.13-4.46-.53-6.19-2.37-6.24-6.85q-.11-10.5,0-21c0-4.09,1.66-5.82,5.72-6.55a25.07,25.07,0,0,1,4.43-.71c5.84,0,9.71-2.22,11.18-8.37.53-2.22.58-3.64-.88-5.33-2.21-2.55-4.28-5.22-6.3-7.92-2.34-3.12-2.24-5.58.47-8.35,5.07-5.18,10.23-10.27,15.37-15.39,2.52-2.51,5.22-2.6,8.08-.57s5.81,3.92,8.54,6.09c1.84,1.45,3.3.94,5.37.48,6.31-1.39,7.86-5.49,7.55-11.11,0-.12,0-.25,0-.37.88-9.57,1.64-10.28,11.14-10.28,5.5,0,11,0,16.5,0,5,.05,6.6,1.52,7.44,6.51a21.16,21.16,0,0,1,.64,4.06c-.16,6.08,2.57,9.82,8.64,10.73a7.08,7.08,0,0,0,4.54-.72c2.81-1.83,5.29-4.17,8-6.23,3.3-2.55,5.75-2.53,8.66.29,5.2,5.05,10.29,10.21,15.41,15.34,2.5,2.51,2.61,5.25.6,8.11a36.66,36.66,0,0,1-3.28,4.56c-3.94,4-4.74,8.19-1.65,13.25,1.17,1.91,2,3,4.35,3.16,3.36.19,6.7.75,10,1.19,3.87.51,5.65,2.32,5.69,6.09.08,7.25,0,14.5,0,21.75,0,3.55-1.78,5.6-5.22,6.23s-7.11,1.45-10.7,1.84c-2.1.23-2.74,1.35-3.69,3-2.94,5.09-2.16,8.91,1.84,13.41,7.39,8.33,7,8.63-.92,16.67-3.61,3.64-7.17,7.32-10.84,10.9-3.14,3.07-5.35,3.2-9,.74a28,28,0,0,1-4.25-3.06c-3.92-3.94-7.94-4.57-12.91-1.72-2.08,1.2-3.29,2.24-3.44,4.62-.19,2.86-.62,5.71-.9,8.57-.52,5.35-2.28,7-7.61,7C611.18,642.79,609.71,642.78,607.75,642.78Zm1.61-11.42c.4-3.58.94-6.9,1.11-10.23.22-4.16,2-6.61,6.18-7.75a39.78,39.78,0,0,0,10-4.16c3.8-2.28,6.9-2.08,10.25.67,2.72,2.23,5.71,4.12,7.38,5.31l9.78-9c-2.2-2.82-4.46-5.81-6.84-8.7-2-2.43-2-4.84-.7-7.64a108.17,108.17,0,0,0,4.87-12.11c1-3.29,2.92-5,6.28-5.49,3.69-.5,7.35-1.21,11.17-1.85v-13c-3.93-.48-7.74-1.06-11.56-1.4-3.35-.29-5-2.16-6.08-5.18a92.25,92.25,0,0,0-4.91-11.69c-1.58-3.07-1.46-5.63.56-8.34,2.23-3,4.32-6.09,6.23-8.8l-9.37-9.33c-2.71,2.16-5.67,4.46-8.55,6.86-2.53,2.11-5,2.12-8,.69a81.19,81.19,0,0,0-11.73-4.81c-3.33-1-5.09-2.87-5.6-6.19-.47-3.08-.91-6.18-1.6-9.22-.18-.83-1.17-2.07-1.85-2.11-3.81-.21-7.64-.1-11.47-.1-.51,4.27-1,8-1.38,11.7-.31,3.31-2.11,5-5.18,6.07a90.06,90.06,0,0,0-11.69,4.92c-3.06,1.56-5.61,1.48-8.33-.57-3-2.26-6.08-4.35-9.16-6.53l-9.07,9.43c2.15,2.7,4.49,5.76,6.95,8.73,2.09,2.53,2.12,5,.73,8a113,113,0,0,0-4.95,12.08c-1,2.91-2.55,4.71-5.66,5.2-3.9.61-7.78,1.39-11.7,2.1v12.91c3.84.44,7.54.9,11.24,1.28a6.65,6.65,0,0,1,6.2,5,83.23,83.23,0,0,0,4.93,11.68c1.72,3.31,1.61,6.09-.64,9s-4.2,5.85-6,8.36l9.1,9.5c3-2.34,6-4.7,9-7.13,2.3-1.85,4.62-2,7.31-.75,4.19,1.9,8.44,3.7,12.79,5.22,2.81,1,4.35,2.62,4.79,5.55.59,3.92,1.36,7.82,2.07,11.82ZM411,666.82c0,10.41-.05,20.63,0,30.84,0,7,4.74,11.75,11.81,11.76q81,.06,161.93,0c7.07,0,11.59-4.68,11.66-11.87.08-9.49,0-19,0-28.49a21.85,21.85,0,0,0-.24-2.23Z" transform="translate(-399.72 -359.27)"/><path d="M596.41,413.19H411V630.76c0,6-1.81,8.84-5.67,8.83s-5.61-2.77-5.61-8.85V384.38c0-16,9.14-25.1,25.08-25.1q79.68,0,159.36,0c11.49,0,20.37,6.68,22.94,17.23a25.18,25.18,0,0,1,.61,5.94q0,29.06,0,58.12c0,1.45,0,3.46-.92,4.21-1.54,1.32-3.79,2.66-5.66,2.55-3.11-.17-4.62-2.75-4.64-5.84-.07-7.88,0-15.75,0-23.63ZM596,401.5a4.85,4.85,0,0,0,.36-1c0-5.5.07-11,.07-16.49,0-9.28-4.19-13.41-13.55-13.41H424.29a27.08,27.08,0,0,0-3,.06c-5.06.53-9.66,4.18-10,9.15-.5,7.15-.13,14.37-.13,21.73Z" transform="translate(-399.72 -359.27)"/><path d="M524.09,431.06c-.62,2.11-.86,3.21-1.26,4.24Q506.69,476,490.55,516.62c-1.14,2.86-3,4.67-6.18,4.42-4-.32-6-4.21-4.34-8.46,4.92-12.53,9.94-25,14.91-37.53q8.69-21.9,17.38-43.79c1.61-4,4.24-5.83,7.35-4.41C521.52,427.69,522.81,429.79,524.09,431.06Z" transform="translate(-399.72 -359.27)"/><path d="M559.26,473.86c-6.54-6.25-12.3-11.76-18-17.28a33.14,33.14,0,0,1-2.62-2.68c-2.24-2.68-2.16-5.92.14-8.06a5.47,5.47,0,0,1,7.78.14c3,2.8,5.85,5.81,8.76,8.74,4.75,4.79,9.54,9.55,14.23,14.41,3,3.14,3.09,6.1.07,9.19q-11.13,11.4-22.45,22.62c-2.93,2.91-6.15,3-8.58.51s-2.17-5.7.79-8.57C545.68,486.69,552.14,480.63,559.26,473.86Z" transform="translate(-399.72 -359.27)"/><path d="M449.07,474.33c6.33,6.12,12.72,12.09,18.81,18.36a8.52,8.52,0,0,1,2.25,5.87,5.7,5.7,0,0,1-3.53,4.1,7.68,7.68,0,0,1-6-1.6c-6.46-6.07-12.58-12.52-18.83-18.82-8.38-8.45-8.38-8.55-.09-16.89q9-9,17.94-18.1c3.41-3.42,6.49-3.87,9.12-1.37s2.18,6-1.23,9.44q-8.7,8.79-17.42,17.57A15.39,15.39,0,0,0,449.07,474.33Z" transform="translate(-399.72 -359.27)"/><path d="M572.22,564.15a29.95,29.95,0,0,1,59.89.64c-.17,16.48-14,30.09-30.31,29.8A30.06,30.06,0,0,1,572.22,564.15Zm35.5,17.91a18.11,18.11,0,0,0,12.75-20.45A18.43,18.43,0,0,0,601.1,546a18.71,18.71,0,0,0-17.54,16.55c-.92,8.87,4.58,17.41,12.72,19.35.05-1.26.15-2.46.15-3.66,0-5.25,0-10.5.05-15.75,0-1.46,0-3.52.88-4.24,1.65-1.36,4-2.73,5.95-2.66,2.93.1,4.39,2.56,4.4,5.57C607.74,568,607.72,574.8,607.72,582.06Z" transform="translate(-399.72 -359.27)"/><path d="M503.54,695.81c-8.12,0-16.25.07-24.37,0-4.82,0-8.07-3.71-6.22-7.32.9-1.75,3.45-3.72,5.29-3.75,17-.28,34-.22,51-.12,3.63,0,5.7,2.34,5.65,5.62s-2.31,5.52-6.21,5.56C520.28,695.88,511.91,695.81,503.54,695.81Z" transform="translate(-399.72 -359.27)"/><path d="M517.75,391.68c-4.5,0-9,.07-13.49,0-3.73-.08-6.2-2.41-6.17-5.61a5.64,5.64,0,0,1,5.87-5.59q14.06-.21,28.11,0c3.78.06,6,2.53,5.89,5.87s-2.24,5.25-6,5.33C527.24,391.75,522.5,391.67,517.75,391.68Z" transform="translate(-399.72 -359.27)"/></svg>