<svg id="Layer_1" data-name="Layer 1" xmlns="http://www.w3.org/2000/svg" viewBox="0 0 107.21 107.21"><defs><style>.cls-1{fill:#fff;}</style></defs><rect x="794.11" y="483.22" width="107.21" height="107.21" rx="30" transform="translate(590.42 -794.11) rotate(90)"/><path class="cls-1" d="M877.33,518.45a24.3,24.3,0,0,1-5.92,1.69c1-.16,2.35-1.88,2.91-2.58a10.7,10.7,0,0,0,2-3.58c.05-.1.09-.23,0-.3a.33.33,0,0,0-.31,0,30.41,30.41,0,0,1-7,2.69.48.48,0,0,1-.49-.13,5.22,5.22,0,0,0-.61-.63,12.24,12.24,0,0,0-3.4-2.08,11.84,11.84,0,0,0-5.2-.84,12.32,12.32,0,0,0-4.94,1.4,12.69,12.69,0,0,0-4,3.25,12.12,12.12,0,0,0-2.38,4.77,12.91,12.91,0,0,0-.13,5c0,.29,0,.32-.24.29-9.63-1.44-17.61-4.88-24.09-12.27-.28-.32-.43-.32-.66,0-2.83,4.25-1.46,11.08,2.08,14.43a18.34,18.34,0,0,0,1.48,1.3,12.21,12.21,0,0,1-4.65-1.3c-.28-.18-.42-.07-.44.24a7.22,7.22,0,0,0,.07,1.38,12.36,12.36,0,0,0,7.62,9.85,7.42,7.42,0,0,0,1.54.47,13.58,13.58,0,0,1-4.56.14c-.33-.06-.46.11-.33.42,2,5.47,6.34,7.1,9.58,8,.43.07.87.07,1.3.17,0,0,0,0-.08.08-1.07,1.64-4.8,2.86-6.54,3.47a23.43,23.43,0,0,1-9.93,1.27c-.54-.08-.65-.07-.79,0s0,.22.15.35c.68.45,1.37.85,2.07,1.23A32.55,32.55,0,0,0,828,559.4c11.93,3.29,25.38.87,34.34-8,7-7,9.5-16.63,9.5-26.29,0-.38.45-.58.71-.78a23.7,23.7,0,0,0,4.68-4.86,1.54,1.54,0,0,0,.31-.94v0C877.57,518.3,877.56,518.35,877.33,518.45Z" transform="translate(-794.11 -483.22)"/></svg>