<svg id="Layer_1" data-name="Layer 1" xmlns="http://www.w3.org/2000/svg" viewBox="0 0 423.19 373.46"><path d="M328,685.05V394.12a5.14,5.14,0,0,0,.55-1.1c6.06-26.52,23.07-40.13,50.2-40.13h99.58q112,0,224,0c28.09,0,48.83,20.21,48.85,47.74q.11,139-.08,278.09a51.33,51.33,0,0,1-2.69,16.16c-6.65,19.6-24.32,31.43-46.17,31.44H377c-1.51,0-3,0-4.54-.09a47.18,47.18,0,0,1-42.55-33.64C329.18,690.11,328.63,687.57,328,685.05ZM737.16,465.14h-395c-.06,1.1-.13,1.91-.13,2.71q0,105.35,0,210.7c0,19.69,14.27,33.73,34.09,33.74q163.39.11,326.79-.11a37.26,37.26,0,0,0,15.51-3.41c13.12-6.26,18.75-17.41,18.74-31.79q-.09-103.69,0-207.4ZM342.21,450.58H737c0-18.08.18-35.84-.15-53.59a27.73,27.73,0,0,0-3.14-11.42c-6.6-13.21-17.87-18.7-32.32-18.7q-161.77,0-323.55,0c-.83,0-1.66,0-2.48,0-17.95.59-32.07,12.75-32.93,30.09C341.52,414.71,342.21,432.5,342.21,450.58Z" transform="translate(-328 -352.88)"/><path d="M558.57,514.07c-1.63,7.84-3.4,16.45-5.21,25.06q-11,52.46-22.1,104.9c-.26,1.22-.48,2.44-.83,3.62-1.13,3.94-4.49,6.3-7.94,5.64a7,7,0,0,1-5.64-8.66c1.72-8.76,3.61-17.5,5.45-26.24q11.12-52.65,22.21-105.31c.8-3.82,2.44-6.79,6.68-7.27S558.68,508.78,558.57,514.07Z" transform="translate(-328 -352.88)"/><path d="M460.57,579.09l29.88,25.46c2.83,2.41,5.74,4.73,8.47,7.25,3.39,3.12,3.82,7.34,1.23,10.25-2.71,3.07-6.7,3.33-10.3.29q-21.94-18.51-43.71-37.21c-4.45-3.83-4.51-8.17-.1-12q21.73-18.75,43.69-37.24c3.74-3.16,8-2.86,10.6.35s1.86,7.27-1.92,10.51q-16.44,14.13-33,28.14Z" transform="translate(-328 -352.88)"/><path d="M618.55,579l-36.13-30.8c-.73-.63-1.49-1.22-2.19-1.89-3.31-3.18-3.78-7.28-1.19-10.27s6.71-3.24,10.31-.22c12.43,10.45,24.76,21,37.13,31.56,2.3,2,4.68,3.85,6.88,5.93,3.92,3.71,4.1,7.95.07,11.43q-22,19-44.32,37.75c-3.47,2.92-7.74,2.45-10.27-.67s-1.91-7.21,1.62-10.24c11.79-10.14,23.68-20.18,35.52-30.26C616.7,580.72,617.39,580.07,618.55,579Z" transform="translate(-328 -352.88)"/><path d="M357.45,409.09a22,22,0,1,1,44.08,0,22.4,22.4,0,0,1-22.06,22.15A22.17,22.17,0,0,1,357.45,409.09Zm30-.12a8.31,8.31,0,0,0-7.94-8,8.09,8.09,0,0,0-.22,16.17A8.33,8.33,0,0,0,387.49,409Z" transform="translate(-328 -352.88)"/><path d="M537.3,409.44a22,22,0,1,1-22.06-22A21.91,21.91,0,0,1,537.3,409.44Zm-22-7.95a8,8,0,1,0,.06,16,8,8,0,0,0-.06-16Z" transform="translate(-328 -352.88)"/><path d="M425.39,409.2a22,22,0,1,1,21.9,22.13A21.87,21.87,0,0,1,425.39,409.2Zm21.88-7.89a8,8,0,0,0,.2,16,8,8,0,1,0-.2-16Z" transform="translate(-328 -352.88)"/></svg>